<svg width="55" height="62" viewBox="0 0 55 62" fill="none" xmlns="http://www.w3.org/2000/svg">
<g filter="url(#filter0_d)">
<path d="M3.40209 19.1955H12.2415L13.0257 17.6358L10.6019 16.4121L4.58987 1.68383C5.34458 1.19286 6.21342 0.778554 7.21105 0.455633C10.8899 -0.735075 15.3714 -0.290015 18.0148 10.5428C18.178 11.2114 18.2806 11.8286 18.3783 12.4162C18.8275 15.1173 19.1728 17.1939 24.8138 20.7688C31.0731 24.7356 31.425 30.1713 27.1672 34.0946C21.6542 37.7861 17.8503 38.0522 12.0272 34.3618C8.27868 31.9862 1.47263 25.325 0.360837 17.1064C0.168 15.6808 0.0249272 14.1944 0 12.717H4.54266L5.99214 16.2922L3.40209 17.8518V19.1955Z" transform="translate(11.1526 11.1499)" fill="#FF4989"/>
<path d="M3.40209 19.1955H12.2415L13.0257 17.6358L10.6019 16.4121L4.58987 1.68383C5.34458 1.19286 6.21342 0.778554 7.21105 0.455633C10.8899 -0.735075 15.3714 -0.290015 18.0148 10.5428C18.178 11.2114 18.2806 11.8286 18.3783 12.4162C18.8275 15.1173 19.1728 17.1939 24.8138 20.7688C31.0731 24.7356 31.425 30.1713 27.1672 34.0946C21.6542 37.7861 17.8503 38.0522 12.0272 34.3618C8.27868 31.9862 1.47263 25.325 0.360837 17.1064C0.168 15.6808 0.0249272 14.1944 0 12.717H4.54266L5.99214 16.2922L3.40209 17.8518V19.1955Z" transform="translate(11.1526 11.1499)" fill="url(#paint0_linear)" fill-opacity="0.5"/>
<path d="M0.0359315 10.8694H3.80603L1.48189 5.09845C0.575012 6.81293 0.157975 8.80289 0.0359315 10.8694Z" transform="translate(11.1526 11.1499)" fill="#FF4989"/>
<path d="M0.0359315 10.8694H3.80603L1.48189 5.09845C0.575012 6.81293 0.157975 8.80289 0.0359315 10.8694Z" transform="translate(11.1526 11.1499)" fill="url(#paint1_linear)" fill-opacity="0.5"/>
</g>
<g filter="url(#filter1_d)">
<path fill-rule="evenodd" clip-rule="evenodd" d="M13.0687 1.26388C11.213 -0.0147696 9.22836 0.159707 7.4098 0.748309C6.46955 1.05265 5.64689 1.43852 4.92847 1.89267L10.8722 16.4535L13.3795 17.7194L12.4865 19.4954H3.40464V17.917L5.95754 16.3797L4.59417 13.0169H0.305523C0.337236 14.4365 0.476351 15.8636 0.662036 17.2362C1.21331 21.3114 3.1777 25.0072 5.47651 27.9835C7.77543 30.96 10.4013 33.2071 12.26 34.3851C15.159 36.2223 17.5358 37.0619 19.8618 36.9964C22.1861 36.931 24.4845 35.9612 27.2267 34.1264C29.3225 32.1914 30.2675 29.9013 29.9385 27.6194C29.6086 25.3315 27.9925 23.0142 24.8861 21.0455C22.0577 19.253 20.5405 17.8263 19.6759 16.4965C18.8112 15.1666 18.6082 13.9457 18.3843 12.5994L18.3829 12.5908C18.2851 12.0027 18.1833 11.3907 18.0216 10.7283C16.7029 5.32388 14.9336 2.54888 13.0687 1.26388ZM13.2389 1.01684C15.1953 2.36489 16.9885 5.22881 18.3131 10.6572C18.4775 11.3309 18.5809 11.9525 18.6784 12.5388L18.6788 12.5416C18.9035 13.8929 19.0987 15.0585 19.9274 16.333C20.758 17.6106 22.234 19.0096 25.0467 20.7921C28.1996 22.7902 29.889 25.1741 30.2354 27.5766C30.5823 29.982 29.5774 32.3683 27.4214 34.3549L27.4129 34.3628L27.4032 34.3693C24.6367 36.2217 22.2793 37.2285 19.8703 37.2963C17.4604 37.3641 15.0236 36.4917 12.0994 34.6385C10.2097 33.4409 7.55827 31.1696 5.23908 28.1669C2.91979 25.1641 0.925258 21.4199 0.364743 17.2764C0.171406 15.8472 0.0276305 14.3546 0.00257345 12.8695L0 12.7169H4.79626L6.33185 16.5045L3.70464 18.0865V19.1954H12.3016L12.9769 17.8522L10.6368 16.6707L4.55669 1.77568L4.66063 1.70806C5.42724 1.20935 6.3082 0.789557 7.31741 0.462888C9.17771 -0.139219 11.2733 -0.337566 13.2389 1.01684ZM1.6529 4.89271L4.1807 11.1694H0.0293637L0.0387445 11.0106C0.161566 8.93083 0.581685 6.91788 1.50185 5.17828L1.6529 4.89271ZM0.348202 10.8694H3.73647L1.61861 5.61063C0.84879 7.18843 0.473385 8.9905 0.348202 10.8694Z" transform="translate(11 11)" fill="#262322"/>
</g>
<defs>
<filter id="filter0_d" x="0.152557" y="0.149902" width="54" height="61" filterUnits="userSpaceOnUse" color-interpolation-filters="sRGB">
<feFlood flood-opacity="0" result="BackgroundImageFix"/>
<feColorMatrix in="SourceAlpha" type="matrix" values="0 0 0 0 0 0 0 0 0 0 0 0 0 0 0 0 0 0 255 0"/>
<feOffset dx="1" dy="1"/>
<feGaussianBlur stdDeviation="6"/>
<feColorMatrix type="matrix" values="0 0 0 0 0.14902 0 0 0 0 0.137255 0 0 0 0 0.133333 0 0 0 0.25 0"/>
<feBlend mode="normal" in2="BackgroundImageFix" result="effect1_dropShadow"/>
<feBlend mode="normal" in="SourceGraphic" in2="effect1_dropShadow" result="shape"/>
</filter>
<filter id="filter1_d" x="0" y="0" width="54.3026" height="61.3" filterUnits="userSpaceOnUse" color-interpolation-filters="sRGB">
<feFlood flood-opacity="0" result="BackgroundImageFix"/>
<feColorMatrix in="SourceAlpha" type="matrix" values="0 0 0 0 0 0 0 0 0 0 0 0 0 0 0 0 0 0 255 0"/>
<feOffset dx="1" dy="1"/>
<feGaussianBlur stdDeviation="6"/>
<feColorMatrix type="matrix" values="0 0 0 0 0.14902 0 0 0 0 0.137255 0 0 0 0 0.133333 0 0 0 0.25 0"/>
<feBlend mode="normal" in2="BackgroundImageFix" result="effect1_dropShadow"/>
<feBlend mode="normal" in="SourceGraphic" in2="effect1_dropShadow" result="shape"/>
</filter>
<linearGradient id="paint0_linear" x2="1" gradientUnits="userSpaceOnUse" gradientTransform="matrix(43.6943 47.9887 -79.2659 73.5912 21.5106 -47.5931)">
<stop offset="0.00753252" stop-color="#EFF1F3"/>
<stop offset="1" stop-color="white" stop-opacity="0"/>
</linearGradient>
<linearGradient id="paint1_linear" x2="1" gradientUnits="userSpaceOnUse" gradientTransform="matrix(43.6943 47.9887 -79.2659 73.5912 21.5106 -47.5931)">
<stop offset="0.00753252" stop-color="#EFF1F3"/>
<stop offset="1" stop-color="white" stop-opacity="0"/>
</linearGradient>
</defs>
</svg>
